<svg width="147" height="149" viewBox="0 0 147 149" fill="none" xmlns="http://www.w3.org/2000/svg">
<path fill-rule="evenodd" clip-rule="evenodd" d="M82.5005 23.9913C73.1857 25.1213 63.0596 29.9108 57.8502 37.947C52.1294 46.7683 47.2005 52.4309 39.4769 56.789C32.1026 60.9523 17.3075 65.1897 11.9438 77.0312C5.26437 91.7756 15.936 105.66 32.7417 112.197C51.5215 119.503 84.3416 122.528 108.603 105.142C132.324 88.1417 132.244 62.4992 125.524 48.8537C116.206 29.9332 95.2465 22.4433 82.5005 23.9913Z" fill="black" fill-opacity="0.04"/>
<path d="M35.1125 102.952L35.1287 102.178L34.508 101.717C30.2897 98.5791 27.562 93.561 27.562 87.9054C27.562 86.9892 27.6335 86.0908 27.7709 85.215L28.0198 83.6286L26.4201 83.4883C24.7357 83.3405 23.4136 81.9242 23.4136 80.201C23.4136 79.0993 23.9521 78.1234 24.7869 77.5215L25.9633 76.6734L25.1553 75.469C23.7622 73.3927 22.9492 70.8953 22.9492 68.2039C22.9492 60.9931 28.7947 55.1476 36.0059 55.1476C40.4162 55.1476 44.3158 57.3327 46.6821 60.6864L47.6438 62.0494L48.8974 60.9488C49.6418 60.2952 50.4616 59.7265 51.3423 59.2571L52.2189 58.7899L52.1308 57.8004C52.1151 57.6239 52.1021 57.4467 52.0917 57.2685L52.0916 57.2671C52.0719 56.9321 52.062 56.5939 52.062 56.2525C52.062 46.7524 59.7635 39.0511 69.2637 39.0511C76.0745 39.0511 81.9633 43.0093 84.7509 48.7576L85.4732 50.247L86.8844 49.382C89.4967 47.781 92.5683 46.8575 95.8604 46.8575C105.361 46.8575 113.062 54.5588 113.062 64.0589C113.062 65.3995 112.909 66.7026 112.62 67.9527L112.498 68.4802L112.741 68.964C113.905 71.2819 114.562 73.9005 114.562 76.6761C114.562 84.0821 109.881 90.3983 103.311 92.8207L102.002 93.3036L102.389 94.6443C102.827 96.1605 103.062 97.7646 103.062 99.4261C103.062 108.926 95.3606 116.628 85.8604 116.628C81.2361 116.628 77.0403 114.805 73.9482 111.835L72.9092 110.837L71.8702 111.835C68.778 114.805 64.5823 116.628 59.958 116.628C58.0101 116.628 56.141 116.305 54.3996 115.71L53.8833 115.534L53.3745 115.731C51.8758 116.309 50.2459 116.628 48.5376 116.628C41.1219 116.628 35.1104 110.616 35.1104 103.2C35.1104 103.111 35.1108 103.03 35.1125 102.952Z" fill="white" stroke="white" stroke-width="3"/>
<path d="M27.7727 95.7304C26.6746 93.3498 26.062 90.6991 26.062 87.9054C26.062 86.911 26.1396 85.9349 26.2891 84.9825C23.8369 84.7674 21.9136 82.7088 21.9136 80.201C21.9136 78.5968 22.7007 77.1764 23.9097 76.3048C22.356 73.9891 21.4492 71.2022 21.4492 68.2039C21.4492 60.1646 27.9663 53.6476 36.0059 53.6476C40.9243 53.6476 45.2725 56.0868 47.9077 59.8216C48.7383 59.0924 49.6533 58.4576 50.6367 57.9334C50.6196 57.7415 50.6055 57.5489 50.5942 57.3553C50.5728 56.9906 50.562 56.6229 50.562 56.2525C50.562 45.9239 58.9351 37.5511 69.2637 37.5511C76.6709 37.5511 83.0718 41.8575 86.1006 48.1031C88.9419 46.3617 92.2837 45.3575 95.8604 45.3575C106.189 45.3575 114.562 53.7303 114.562 64.0589C114.562 65.5143 114.396 66.9308 114.081 68.2906C114.944 70.008 115.55 71.8769 115.849 73.8467M29.7489 99.0567C30.8413 100.525 32.1442 101.828 33.6128 102.92C33.6108 103.014 33.6104 103.107 33.6104 103.2C33.6104 111.444 40.2935 118.128 48.5376 118.128C50.4336 118.128 52.2466 117.774 53.915 117.13C55.8105 117.777 57.8433 118.128 59.958 118.128C64.9849 118.128 69.5488 116.144 72.9092 112.917C76.2695 116.144 80.8335 118.128 85.8604 118.128C96.189 118.128 104.562 109.755 104.562 99.4261C104.562 97.6224 104.307 95.8783 103.83 94.2281C108.426 92.5334 112.173 89.0854 114.26 84.6953M116.031 77.7639C115.969 78.8484 115.814 79.9081 115.575 80.9354" stroke="#333333" stroke-width="1.5"/>
<path d="M43.0137 70.8768C43.0137 62.9381 49.4493 56.5025 57.3879 56.5025" stroke="#333333" stroke-width="1.5"/>
<path d="M96.2825 62.3089C96.2825 54.3702 89.8469 47.9347 81.9082 47.9347" stroke="#333333" stroke-width="1.5"/>
<path d="M37.4106 82.1768C37.4106 74.2382 43.8462 67.8026 51.7849 67.8026" stroke="#333333" stroke-width="1.5"/>
<path d="M76.5965 94.7765C72.2662 97.2766 66.7292 95.793 64.2291 91.4627" stroke="#333333" stroke-width="1.5"/>
<path d="M33.7617 103.038C35.9648 104.523 39.0273 105.741 43.6211 105.273" stroke="#333333" stroke-width="1.5"/>
<path d="M24.4573 75.9107C25.1604 75.3859 26.402 74.8845 26.402 74.8845" stroke="#333333" stroke-width="1.5"/>
<path d="M103.782 94.0603C103.397 92.6172 101.84 88.7726 98.5898 86.5226" stroke="#333333" stroke-width="1.5"/>
<path d="M9.96484 45.3976H21.9648" stroke="#333333" stroke-width="1.5"/>
<path d="M44.5977 14.1476L44.5977 26.1476" stroke="#333333" stroke-width="1.5"/>
<path d="M22.1592 23.1549L30.6445 31.6402" stroke="#333333" stroke-width="1.5"/>
<path d="M111.819 119.128L120.305 127.613" stroke="#333333" stroke-width="1.5"/>
<path d="M113.569 112.642H120.305" stroke="#333333" stroke-width="1.5"/>
<path d="M105.4 121.878L105.4 128.613" stroke="#333333" stroke-width="1.5"/>
<path d="M114.816 16.94C114.567 16.5074 114.236 16.1282 113.844 15.8241C114.043 15.3035 114.152 14.7383 114.152 14.1476C114.152 11.5587 112.054 9.46005 109.465 9.46005C107.237 9.46005 105.372 11.014 104.896 13.0971C104.577 13.0109 104.243 12.9649 103.897 12.9649C103.64 12.9649 103.389 12.9905 103.146 13.0392C102.648 10.9853 100.797 9.46005 98.5898 9.46005C96.001 9.46005 93.9023 11.5587 93.9023 14.1476C93.9023 15.2358 94.2732 16.2375 94.8954 17.033C93.4783 17.5875 92.4746 18.9666 92.4746 20.5802C92.4746 21.2299 92.6373 21.8416 92.9243 22.3767C92.1104 23.075 91.5947 24.1111 91.5947 25.2677C91.5947 27.3706 93.2995 29.0753 95.4023 29.0753C95.5993 29.0753 95.7927 29.0603 95.9816 29.0315C96.7793 30.4792 98.32 31.4601 100.09 31.4601C100.558 31.4601 101.011 31.3913 101.438 31.2634C102.154 33.5853 104.317 35.2726 106.874 35.2726C109.693 35.2726 112.033 33.2209 112.483 30.5291C113.002 30.7268 113.564 30.8351 114.152 30.8351C116.741 30.8351 118.84 28.7364 118.84 26.1476C118.84 25.8555 118.813 25.5696 118.762 25.2923C119.964 24.4437 120.75 23.0436 120.75 21.4601C120.75 18.8712 118.651 16.7726 116.062 16.7726C115.631 16.7726 115.213 16.8308 114.816 16.94Z" fill="white"/>
<path d="M114.816 16.94C114.567 16.5074 114.236 16.1282 113.844 15.8241C114.043 15.3035 114.152 14.7383 114.152 14.1476C114.152 11.5587 112.054 9.46005 109.465 9.46005C107.237 9.46005 105.372 11.014 104.896 13.0971C104.577 13.0109 104.243 12.9649 103.897 12.9649C103.64 12.9649 103.389 12.9905 103.146 13.0392C102.648 10.9853 100.797 9.46005 98.5898 9.46005C96.001 9.46005 93.9023 11.5587 93.9023 14.1476C93.9023 15.2358 94.2732 16.2375 94.8954 17.033C93.4783 17.5875 92.4746 18.9666 92.4746 20.5802C92.4746 21.2299 92.6373 21.8416 92.9243 22.3767C92.1104 23.075 91.5947 24.1111 91.5947 25.2677C91.5947 27.3706 93.2995 29.0753 95.4023 29.0753C95.5993 29.0753 95.7927 29.0603 95.9816 29.0315C96.7793 30.4792 98.32 31.4601 100.09 31.4601C100.558 31.4601 101.011 31.3913 101.438 31.2634C102.154 33.5853 104.317 35.2726 106.874 35.2726C109.693 35.2726 112.033 33.2209 112.483 30.5291C113.002 30.7268 113.564 30.8351 114.152 30.8351C116.741 30.8351 118.84 28.7364 118.84 26.1476C118.84 25.8555 118.813 25.5696 118.762 25.2923C119.964 24.4437 120.75 23.0436 120.75 21.4601C120.75 18.8712 118.651 16.7726 116.062 16.7726C115.631 16.7726 115.213 16.8308 114.816 16.94Z" stroke="#333333" stroke-width="1.5"/>
<path d="M96.2822 24.3878C94.1793 24.3878 92.4746 22.6831 92.4746 20.5802" stroke="#333333" stroke-width="1.5"/>
<path d="M111.513 15.0274C113.616 15.0274 115.32 16.7322 115.32 18.8351C115.32 20.1469 114.657 21.3038 113.647 21.9886" stroke="#333333" stroke-width="1.5"/>
<path d="M106.874 35.2727C110.015 35.2727 112.561 32.7263 112.561 29.5852C112.561 29.0659 112.491 28.563 112.361 28.0851" stroke="#333333" stroke-width="1.5"/>
<path d="M0.952148 101.914C0.952148 102.949 1.28054 103.907 1.83886 104.691C1.29387 105.19 0.952148 105.907 0.952148 106.704C0.952148 108.211 2.1737 109.432 3.68055 109.432C4.67351 109.432 5.54262 108.902 6.01988 108.109C6.6813 109.962 8.45211 111.289 10.5327 111.289C13.1783 111.289 15.323 109.144 15.323 106.498C15.323 105.463 14.9946 104.505 14.4363 103.721C14.9813 103.222 15.323 102.505 15.323 101.708C15.323 100.201 14.1015 98.9797 12.5946 98.9797C11.6017 98.9797 10.7326 99.5101 10.2553 100.303C9.59387 98.4497 7.82306 97.1234 5.74244 97.1234C3.09683 97.1234 0.952148 99.2681 0.952148 101.914Z" fill="white"/>
<path d="M0.952148 101.914C0.952148 102.949 1.28054 103.907 1.83886 104.691C1.29387 105.19 0.952148 105.907 0.952148 106.704C0.952148 108.211 2.1737 109.432 3.68055 109.432C4.67351 109.432 5.54262 108.902 6.01988 108.109C6.6813 109.962 8.45211 111.289 10.5327 111.289C13.1783 111.289 15.323 109.144 15.323 106.498C15.323 105.463 14.9946 104.505 14.4363 103.721C14.9813 103.222 15.323 102.505 15.323 101.708C15.323 100.201 14.1015 98.9797 12.5946 98.9797C11.6017 98.9797 10.7326 99.5101 10.2553 100.303C9.59387 98.4497 7.82306 97.1234 5.74244 97.1234C3.09683 97.1234 0.952148 99.2681 0.952148 101.914Z" stroke="#333333" stroke-width="1.5"/>
</svg>
