<svg width="171" height="86" viewBox="0 0 171 86" fill="none" xmlns="http://www.w3.org/2000/svg">
<path fill-rule="evenodd" clip-rule="evenodd" d="M114.3 85C123.98 79.3553 133.459 71.1327 139.113 61.2902C149.033 44.0215 147.666 31.4257 142.565 18.6117C137.411 5.65901 118.572 -1.97273 104.088 0.444775C89.6049 2.86228 79.4668 17.8967 59.9342 20.0537C40.4017 22.2108 24.5233 32.4343 19.9658 47.0551C15.1815 62.4064 24.5492 75.2388 32.9719 81.3901C34.7082 82.6582 36.4532 83.8545 38.2318 84.9705L114.3 85Z" fill="black" fill-opacity="0.04"/>
<path d="M15.4202 55.7793C38.1006 55.7793 40.213 83.2872 40.213 83.2872C40.213 83.2872 44.3266 63.5506 58.0015 63.5506C71.6764 63.5506 75.79 83.2872 75.79 83.2872C75.79 83.2872 78.5694 46.8978 100.583 46.8978" stroke="#333333" stroke-width="1.5" stroke-linecap="round" stroke-dasharray="4 4"/>
<path d="M105.478 55.2916L104.818 56.6386L105.478 55.2916C103.871 54.5047 102.722 52.997 102.399 51.2464C102.102 49.6388 101.351 48.1456 100.243 46.9472C99.0309 45.6368 98.5098 43.8226 98.8454 42.0742C99.1533 40.4705 98.9986 38.8122 98.3996 37.2931C97.7453 35.6338 97.9208 33.758 98.8709 32.2466C99.7399 30.8644 100.2 29.2615 100.194 27.6279C100.188 25.8488 101.037 24.1586 102.47 23.0923C103.78 22.1178 104.796 20.7865 105.385 19.2604C106.028 17.5969 107.437 16.3239 109.163 15.8429C110.737 15.4044 112.168 14.5287 113.272 13.3183C114.481 11.993 116.257 11.3113 118.048 11.4823C119.676 11.6377 121.324 11.3345 122.791 10.6033C124.406 9.79791 126.306 9.79791 127.921 10.6033C129.388 11.3345 131.036 11.6377 132.664 11.4823C134.455 11.3113 136.231 11.993 137.44 13.3183C138.544 14.5287 139.975 15.4044 141.549 15.8429C143.275 16.3239 144.684 17.5969 145.327 19.2604C145.916 20.7865 146.932 22.1178 148.242 23.0923C149.675 24.1586 150.524 25.8488 150.518 27.6279C150.512 29.2615 150.972 30.8644 151.841 32.2466C152.791 33.758 152.967 35.6338 152.312 37.2931C151.713 38.8122 151.559 40.4705 151.867 42.0742C152.202 43.8226 151.681 45.6368 150.469 46.9472C149.361 48.1456 148.61 49.6388 148.313 51.2465C147.99 52.997 146.841 54.5047 145.235 55.2916L145.894 56.6386L145.235 55.2916C143.768 56.0099 142.523 57.1328 141.661 58.5249C140.72 60.0453 139.099 61.0396 137.311 61.1978C135.682 61.3419 134.116 61.9411 132.808 62.9284C131.371 64.0129 129.501 64.3592 127.768 63.8633C126.194 63.4128 124.518 63.4128 122.944 63.8633C121.211 64.3592 119.341 64.0129 117.904 62.9284L117 64.1255L117.904 62.9284C116.597 61.9411 115.03 61.3419 113.402 61.1978C111.613 61.0396 109.992 60.0453 109.051 58.5249C108.189 57.1328 106.944 56.0099 105.478 55.2916Z" fill="white" stroke="white" stroke-width="3"/>
<path d="M122.121 9.26091C124.158 8.24538 126.554 8.24538 128.591 9.26091V9.26091C129.805 9.86615 131.171 10.118 132.522 9.98908V9.98908C134.78 9.77352 137.02 10.6316 138.548 12.3076V12.3076C139.461 13.3081 140.647 14.0344 141.952 14.398V14.398C144.13 15.005 145.911 16.6105 146.726 18.7199V18.7199C147.213 19.9802 148.054 21.0823 149.137 21.889V21.889C150.949 23.2373 152.026 25.3747 152.018 27.6332V27.6332C152.013 28.9821 152.393 30.3063 153.111 31.4482V31.4482C154.315 33.363 154.538 35.7394 153.708 37.8434V37.8434C153.213 39.0978 153.086 40.4671 153.34 41.7914V41.7914C153.766 44.0103 153.105 46.307 151.57 47.9657V47.9657C150.654 48.9567 150.033 50.1915 149.788 51.5189V51.5189C149.378 53.7405 147.923 55.6446 145.894 56.6386V56.6386C144.68 57.2337 143.648 58.1642 142.936 59.3144V59.3144C141.745 61.2398 139.698 62.4924 137.443 62.692V62.692C136.093 62.8115 134.793 63.3088 133.712 64.1255V64.1255C131.898 65.4947 129.54 65.9306 127.356 65.3054V65.3054C126.051 64.9321 124.661 64.9321 123.356 65.3054V65.3054C121.172 65.9306 118.814 65.4947 117 64.1255V64.1255C115.919 63.3088 114.62 62.8115 113.269 62.692V62.692C111.014 62.4924 108.967 61.2398 107.776 59.3144V59.3144C107.064 58.1642 106.032 57.2337 104.818 56.6386V56.6386C102.789 55.6446 101.334 53.7405 100.924 51.5189V51.5189C100.679 50.1915 100.058 48.9567 99.1416 47.9657V47.9657C97.6075 46.307 96.9464 44.0103 97.3723 41.7914V41.7914C97.6265 40.4671 97.4988 39.0978 97.0042 37.8434V37.8434C96.1745 35.7394 96.3973 33.363 97.601 31.4482V31.4482C98.3189 30.3063 98.6987 28.9821 98.694 27.6332V27.6332C98.6861 25.3747 99.7627 23.2373 101.575 21.889V21.889C102.659 21.0823 103.499 19.9802 103.986 18.7199V18.7199C104.801 16.6105 106.582 15.005 108.76 14.398V14.398C110.065 14.0344 111.251 13.3081 112.164 12.3076V12.3076C113.692 10.6316 115.932 9.77352 118.191 9.98908V9.98908C119.541 10.118 120.907 9.86615 122.121 9.26091V9.26091Z" stroke="#333333" stroke-width="1.5"/>
<path d="M111.104 10.197C113.295 10.4145 117.94 12.2414 118.992 17.8089" stroke="#333333" stroke-width="1.5" stroke-linecap="round"/>
<path d="M118.115 15.2535C119.813 14.6373 123.297 12.2848 123.648 7.80469" stroke="#333333" stroke-width="1.5" stroke-linecap="round"/>
<path d="M107.16 14.6556C107.16 16.5586 109.296 19.0596 111.378 19.0596" stroke="#333333" stroke-width="1.5" stroke-linecap="round"/>
<path d="M113.281 36.3128C111.423 35.8427 108.454 37.2796 107.94 39.2817" stroke="#333333" stroke-width="1.5" stroke-linecap="round"/>
<path d="M89.397 31.2418C88.1615 30.8175 86.0613 31.6263 85.5972 32.9578" stroke="#333333" stroke-width="1.5" stroke-linecap="round"/>
<path d="M102.668 28.4657C103.198 27.7952 104.64 26.6063 106.174 27.2152" stroke="#333333" stroke-width="1.5" stroke-linecap="round"/>
<path d="M145.072 38.3979C144.23 38.2329 142.509 37.4946 142.361 35.8615" stroke="#333333" stroke-width="1.5" stroke-linecap="round"/>
<path d="M124.767 70.0425C124.754 70.8944 124.331 72.7075 122.739 73.1445" stroke="#333333" stroke-width="1.5" stroke-linecap="round"/>
<path d="M96.9719 23.5181C99.8751 21.5607 105.188 21.2998 109.132 23.5181" stroke="#333333" stroke-width="1.5" stroke-linecap="round"/>
<path d="M153.771 26.291C154.099 29.7594 151.766 34.5054 147.907 36.865" stroke="#333333" stroke-width="1.5" stroke-linecap="round"/>
<path d="M134.022 27.9775C134.349 31.4458 132.017 36.1918 128.157 38.5515" stroke="#333333" stroke-width="1.5" stroke-linecap="round"/>
<path d="M140.463 30.2598C140.463 30.2598 139.696 26.182 143.586 21.343C147.475 16.504 150.268 16.3953 150.268 16.3953" stroke="#333333" stroke-width="1.5" stroke-linecap="round"/>
<path d="M104.021 59.286C103.001 55.9528 104.33 50.8396 107.636 47.7614" stroke="#333333" stroke-width="1.5" stroke-linecap="round"/>
<path d="M110.611 27.7589C113.624 28.5201 116.834 31.0973 117.842 34.4465" stroke="#333333" stroke-width="1.5" stroke-linecap="round"/>
<path d="M115.925 20.7995C117.166 22.9925 119.277 28.7703 117.787 34.3378C116.297 39.9054 118.079 43.0372 119.156 43.9071" stroke="#333333" stroke-width="1.5" stroke-linecap="round"/>
<path d="M106.119 31.1843C101.025 33.4135 97.3768 38.6549 96.8071 45.9188" stroke="#333333" stroke-width="1.5" stroke-linecap="round"/>
<path d="M99.9292 36.4583C101.244 37.4007 104.081 40.2098 104.914 43.9071" stroke="#333333" stroke-width="1.5" stroke-linecap="round"/>
<path d="M145.613 46.5929C141.638 45.4617 136.547 46.9306 131.781 51.1899" stroke="#333333" stroke-width="1.5" stroke-linecap="round"/>
<path d="M136.536 21.2196C132.562 20.0884 127.47 21.5573 122.705 25.8166" stroke="#333333" stroke-width="1.5" stroke-linecap="round"/>
<path d="M153.499 49.616C146.872 54.8899 140.296 50.7628 138.695 47.3234" stroke="#333333" stroke-width="1.5" stroke-linecap="round"/>
<path d="M128.016 22.155C122.868 15.4492 127.186 9.02466 130.69 7.52149" stroke="#333333" stroke-width="1.5" stroke-linecap="round"/>
<path d="M111.104 51.4645C111.104 51.4645 114.445 53.6937 115.103 58.5327C115.76 63.3717 113.569 65.5466 113.569 65.5466" stroke="#333333" stroke-width="1.5" stroke-linecap="round"/>
<path d="M124.599 32.8155C124.599 32.8155 127.941 35.0447 128.598 39.8837C129.255 44.7227 127.064 46.8975 127.064 46.8975" stroke="#333333" stroke-width="1.5" stroke-linecap="round"/>
<path d="M115.267 58.859C116.472 58.1522 119.529 57.0322 122.114 58.2066" stroke="#333333" stroke-width="1.5" stroke-linecap="round"/>
<path d="M138.145 17.1828C139.485 17.5853 142.384 19.0614 143.262 21.7457" stroke="#333333" stroke-width="1.5" stroke-linecap="round"/>
<path d="M100.6 4.00652C101.94 4.40903 104.839 5.88512 105.717 8.5694" stroke="#333333" stroke-width="1.5" stroke-linecap="round"/>
<path d="M155.155 40.8927C154.29 41.9853 151.851 44.1295 149.012 43.9659" stroke="#333333" stroke-width="1.5" stroke-linecap="round"/>
<path d="M109.077 44.9401C110.319 44.8494 113.47 45.5164 116.144 48.9091C118.817 52.3019 120.763 53.3313 121.402 53.4219" stroke="#333333" stroke-width="1.5" stroke-linecap="round"/>
<path d="M116.911 49.8335C117.915 49.8335 120.175 49.6377 121.183 48.8548" stroke="#333333" stroke-width="1.5" stroke-linecap="round"/>
<path d="M126.661 57.8803C129.217 57.826 134.889 57.1518 137.123 54.89" stroke="#333333" stroke-width="1.5" stroke-linecap="round"/>
<path d="M133.179 56.956C134.42 58.2428 137.9 60.6532 141.888 60.0008" stroke="#333333" stroke-width="1.5" stroke-linecap="round"/>
<path d="M132.114 14.2275C133.203 13.0223 136.043 10.6144 138.695 10.6251" stroke="#333333" stroke-width="1.5" stroke-linecap="round"/>
<path d="M146.654 26.8345C146.252 28.2301 146.391 31.9019 150.159 35.4251" stroke="#333333" stroke-width="1.5" stroke-linecap="round"/>
<path d="M101.358 11.7842C100.516 11.6192 98.795 10.8809 98.6476 9.24779" stroke="#333333" stroke-width="1.5" stroke-linecap="round"/>
<path d="M129.587 70.0426C128.745 69.8776 127.024 69.1393 126.877 67.5062" stroke="#333333" stroke-width="1.5" stroke-linecap="round"/>
<path d="M32.8609 84.9999H129.62" stroke="#333333" stroke-width="1.5" stroke-linecap="square"/>
<path d="M84.3765 27.0504C83.9027 26.7568 83.8385 26.1062 84.246 25.7268C86.4121 23.7105 89.279 23.4319 91.7979 24.993C92.2718 25.2866 92.336 25.9373 91.9285 26.3166C89.7624 28.3329 86.8955 28.6115 84.3765 27.0504Z" fill="white" stroke="#333333" stroke-width="1.5"/>
<path d="M139.82 70.4545C139.886 71.0023 139.371 71.4202 138.843 71.2465C137.445 70.786 136.535 69.6797 136.359 68.228C136.292 67.6801 136.808 67.2622 137.335 67.436C138.734 67.8965 139.644 69.0027 139.82 70.4545Z" fill="white" stroke="#333333" stroke-width="1.5"/>
<path d="M89.4289 19.7686C89.1873 19.2702 89.544 18.7072 90.1012 18.7075C91.5392 18.708 92.7288 19.4506 93.3523 20.7368C93.5938 21.2352 93.2372 21.7982 92.68 21.7979C91.242 21.7974 90.0524 21.0548 89.4289 19.7686Z" fill="white" stroke="#333333" stroke-width="1.5"/>
</svg>
