<svg width="169" height="145" viewBox="0 0 169 145" fill="none" xmlns="http://www.w3.org/2000/svg">
<rect x="50.09" y="109.198" width="26" height="22" rx="4" fill="white" stroke="#333333" stroke-width="1.5"/>
<rect width="26" height="22" rx="4" transform="matrix(-1 0 0 1 119.09 109.198)" fill="white" stroke="#333333" stroke-width="1.5"/>
<path fill-rule="evenodd" clip-rule="evenodd" d="M129.667 144.198C146.508 130.524 149.712 110.157 146.485 97.109C140.992 74.8951 120.682 61.9003 106.946 60.4317C96.9083 59.357 85.1886 61.9432 77.8954 69.1482C69.8872 77.0565 63.4269 81.8274 54.3279 84.5431C45.6399 87.1384 31.1716 87.4187 22.8532 98.598C17.2831 106.083 16.6953 123.105 22.564 132.998C26.8354 140.198 37.3566 143.983 37.6963 144.198H129.667Z" fill="black" fill-opacity="0.04"/>
<path d="M42.0588 93.9163L41.3175 93.802L42.0588 93.9163ZM41.3175 93.802L38.2179 113.912L39.7004 114.14L42.8 94.0305L41.3175 93.802ZM50.7853 85.6817C46.0581 85.6817 42.0376 89.13 41.3175 93.802L42.8 94.0305C43.4074 90.0901 46.7983 87.1817 50.7853 87.1817V85.6817ZM49.7077 86.2481H51.304V84.7481H49.7077V86.2481ZM38.6257 82.6841C41.8562 85.0016 45.7319 86.2481 49.7077 86.2481V84.7481C46.0456 84.7481 42.4756 83.6 39.5 81.4653L38.6257 82.6841Z" fill="#333333"/>
<path d="M118.824 86.2481H117.228V84.7481H118.824V86.2481ZM129.906 82.6841C126.676 85.0016 122.8 86.2481 118.824 86.2481V84.7481C122.486 84.7481 126.056 83.6 129.032 81.4653L129.906 82.6841Z" fill="#333333"/>
<rect x="59.8389" y="82.1109" width="49.1063" height="43.8357" rx="5" fill="white" stroke="#333333" stroke-width="1.5"/>
<path d="M49.8965 82.8413C49.8965 80.3204 51.9401 78.2768 54.461 78.2768H114.322C116.843 78.2768 118.887 80.3204 118.887 82.8413V94.6758C118.887 97.1967 116.843 99.2403 114.322 99.2403H54.461C51.9401 99.2403 49.8965 97.1967 49.8965 94.6758V82.8413Z" fill="white"/>
<path d="M54.4612 79.0268H114.323V77.5268H54.4612V79.0268ZM118.137 82.8413V94.6758H119.637V82.8413H118.137ZM114.323 98.4903H54.4612V99.9903H114.323V98.4903ZM50.6467 94.6758V82.8413H49.1467V94.6758H50.6467ZM54.4612 98.4903C52.3545 98.4903 50.6467 96.7825 50.6467 94.6758H49.1467C49.1467 97.6109 51.526 99.9903 54.4612 99.9903V98.4903ZM118.137 94.6758C118.137 96.7825 116.429 98.4903 114.323 98.4903V99.9903C117.258 99.9903 119.637 97.6109 119.637 94.6758H118.137ZM114.323 79.0268C116.429 79.0268 118.137 80.7346 118.137 82.8413H119.637C119.637 79.9062 117.258 77.5268 114.323 77.5268V79.0268ZM54.4612 77.5268C51.526 77.5268 49.1467 79.9062 49.1467 82.8413H50.6467C50.6467 80.7346 52.3545 79.0268 54.4612 79.0268V77.5268Z" fill="#333333"/>
<path d="M54.9442 79.9947C54.9442 77.6147 56.8735 75.6853 59.2535 75.6853H109.53C111.91 75.6853 113.839 77.6147 113.839 79.9947V113.925C113.839 116.305 111.91 118.235 109.53 118.235H59.2535C56.8735 118.235 54.9442 116.305 54.9442 113.925V79.9947Z" fill="#EEEEEE" stroke="white" stroke-width="3"/>
<path d="M59.2535 74.9353H109.53V73.4353H59.2535V74.9353ZM114.589 79.9947V113.925H116.089V79.9947H114.589ZM109.53 118.985H59.2535V120.485H109.53V118.985ZM54.1942 113.925V79.9947H52.6942V113.925H54.1942ZM59.2535 118.985C56.4593 118.985 54.1942 116.72 54.1942 113.925H52.6942C52.6942 117.548 55.6309 120.485 59.2535 120.485V118.985ZM114.589 113.925C114.589 116.72 112.324 118.985 109.53 118.985V120.485C113.153 120.485 116.089 117.548 116.089 113.925H114.589ZM109.53 74.9353C112.324 74.9353 114.589 77.2005 114.589 79.9947H116.089C116.089 76.372 113.153 73.4353 109.53 73.4353V74.9353ZM59.2535 73.4353C55.6309 73.4353 52.6942 76.372 52.6942 79.9947H54.1942C54.1942 77.2005 56.4593 74.9353 59.2535 74.9353V73.4353Z" fill="#333333"/>
<path d="M59.0959 74.1853V73.4353H58.3459V74.1853H59.0959ZM109.688 74.1853H110.438V73.4353H109.688V74.1853ZM109.688 119.735V120.485H110.438V119.735H109.688ZM59.0959 119.735H58.3459V120.485H59.0959V119.735ZM59.0959 74.9353H109.688V73.4353H59.0959V74.9353ZM108.938 74.1853V119.735H110.438V74.1853H108.938ZM109.688 118.985H59.0959V120.485H109.688V118.985ZM59.8459 119.735V74.1853H58.3459V119.735H59.8459Z" fill="#333333"/>
<rect x="67.0119" y="90.5223" width="34.7603" height="14.5543" rx="1.5" fill="white" stroke="white" stroke-width="3"/>
<rect x="65.5119" y="89.0223" width="37.7603" height="17.5543" rx="3" stroke="#333333" stroke-width="1.5"/>
<path d="M42.2673 104.138L46.637 92.73" stroke="#333333" stroke-width="1.5"/>
<path d="M39.5251 102.381C39.5375 101.565 39.4112 100.331 39.0392 98.8995C38.9266 98.4661 38.7914 98.0147 38.6308 97.5513C38.5062 97.1919 38.3663 96.8254 38.2096 96.4546C38.0457 96.0664 37.8634 95.6735 37.6612 95.2792M34.027 90.5544C34.4098 90.8947 34.7676 91.2465 35.1018 91.6068C35.4026 91.931 35.6843 92.2621 35.948 92.5979" stroke="#333333" stroke-width="1.5"/>
<rect x="65.5119" y="80.0742" width="4.14954" height="4.14954" rx="2.07477" fill="white" stroke="#333333" stroke-width="1.5"/>
<path d="M126.265 104.138L121.895 92.73" stroke="#333333" stroke-width="1.5"/>
<path d="M129.007 102.381C128.995 101.565 129.121 100.331 129.493 98.8995C129.605 98.4661 129.741 98.0147 129.901 97.5513C130.026 97.1919 130.166 96.8254 130.322 96.4546C130.486 96.0664 130.669 95.6735 130.871 95.2792M134.505 90.5544C134.122 90.8947 133.764 91.2465 133.43 91.6068C133.129 91.931 132.848 92.2621 132.584 92.5979" stroke="#333333" stroke-width="1.5"/>
<path d="M39.5349 102.198L43.793 103.555L39.6065 116.689C35.8933 128.338 25.7396 136.698 13.6944 138.177L13.3621 133.714C23.5879 132.375 32.1892 125.243 35.3484 115.332L39.5349 102.198Z" fill="white" stroke="white" stroke-width="3"/>
<path fill-rule="evenodd" clip-rule="evenodd" d="M45.6777 102.581L41.0357 117.145C36.9841 129.855 25.6165 138.829 12.3126 139.82L11.7579 132.372C22.0226 131.607 30.7933 124.683 33.9193 114.876L38.5613 100.313L45.6777 102.581Z" stroke="#333333" stroke-width="1.5"/>
<path d="M1.91304 140.839C1.45469 140.839 1.08313 140.359 1.08313 139.767L1.08313 138.581C1.08313 137.989 1.45469 137.509 1.91304 137.509L9.79717 137.509C10.2555 137.509 10.6271 137.989 10.6271 138.581V139.767C10.6271 140.359 10.2555 140.839 9.79717 140.839L1.91304 140.839Z" fill="white"/>
<path d="M10.6271 139.767H9.87708H10.6271ZM9.79717 140.839V140.089V140.839ZM9.79717 137.509V136.759V137.509ZM10.6271 138.581H11.3771H10.6271ZM1.08313 138.581L1.83313 138.581L1.08313 138.581ZM1.91304 137.509L1.91304 138.259L1.91304 137.509ZM1.08313 139.767H0.33313H1.08313ZM1.91304 140.839L1.91304 141.589L1.91304 140.839ZM1.83313 139.767L1.83313 138.581L0.33313 138.581L0.33313 139.767H1.83313ZM1.91304 138.259L9.79717 138.259V136.759L1.91304 136.759L1.91304 138.259ZM9.87708 138.581V139.767H11.3771V138.581H9.87708ZM9.79717 140.089L1.91304 140.089L1.91304 141.589L9.79717 141.589V140.089ZM9.87708 139.767C9.87708 139.911 9.83117 140.014 9.79095 140.066C9.75144 140.117 9.74747 140.089 9.79717 140.089V141.589C10.837 141.589 11.3771 140.584 11.3771 139.767H9.87708ZM9.79717 138.259C9.74747 138.259 9.75144 138.231 9.79095 138.282C9.83117 138.334 9.87708 138.437 9.87708 138.581H11.3771C11.3771 137.765 10.837 136.759 9.79717 136.759V138.259ZM1.83313 138.581C1.83313 138.437 1.87904 138.334 1.91926 138.282C1.95877 138.231 1.96274 138.259 1.91304 138.259L1.91304 136.759C0.873202 136.759 0.33313 137.765 0.33313 138.581L1.83313 138.581ZM0.33313 139.767C0.33313 140.584 0.873201 141.589 1.91304 141.589L1.91304 140.089C1.96274 140.089 1.95877 140.117 1.91926 140.066C1.87904 140.014 1.83313 139.911 1.83313 139.767H0.33313Z" fill="#333333"/>
<path d="M1.91304 134.87C1.45469 134.87 1.08313 134.39 1.08313 133.798L1.08313 132.612C1.08313 132.02 1.45469 131.54 1.91304 131.54L9.79717 131.54C10.2555 131.54 10.6271 132.02 10.6271 132.612V133.798C10.6271 134.39 10.2555 134.87 9.79717 134.87L1.91304 134.87Z" fill="white"/>
<path d="M10.6271 133.798H9.87708H10.6271ZM9.79717 134.87V134.12V134.87ZM9.79717 131.54V130.79V131.54ZM10.6271 132.612H11.3771H10.6271ZM1.08313 132.612L1.83313 132.612L1.08313 132.612ZM1.91304 131.54L1.91304 132.29L1.91304 131.54ZM1.08313 133.798H0.33313H1.08313ZM1.91304 134.87L1.91304 135.62L1.91304 134.87ZM1.83313 133.798L1.83313 132.612L0.33313 132.612L0.33313 133.798H1.83313ZM1.91304 132.29L9.79717 132.29V130.79L1.91304 130.79L1.91304 132.29ZM9.87708 132.612V133.798H11.3771V132.612H9.87708ZM9.79717 134.12L1.91304 134.12L1.91304 135.62L9.79717 135.62V134.12ZM9.87708 133.798C9.87708 133.942 9.83117 134.045 9.79095 134.097C9.75144 134.148 9.74747 134.12 9.79717 134.12V135.62C10.837 135.62 11.3771 134.614 11.3771 133.798H9.87708ZM9.79717 132.29C9.74747 132.29 9.75144 132.262 9.79095 132.313C9.83117 132.365 9.87708 132.468 9.87708 132.612H11.3771C11.3771 131.795 10.837 130.79 9.79717 130.79V132.29ZM1.83313 132.612C1.83313 132.468 1.87904 132.365 1.91926 132.313C1.95877 132.262 1.96274 132.29 1.91304 132.29L1.91304 130.79C0.873202 130.79 0.33313 131.795 0.33313 132.612L1.83313 132.612ZM0.33313 133.798C0.33313 134.614 0.873201 135.62 1.91304 135.62L1.91304 134.12C1.96274 134.12 1.95877 134.148 1.91926 134.097C1.87904 134.045 1.83313 133.942 1.83313 133.798H0.33313Z" fill="#333333"/>
<path d="M11.4976 141.037H9.13527L9.13527 131.277L11.4976 131.277L11.4976 141.037Z" fill="white" stroke="white" stroke-width="3"/>
<path d="M12.9976 141.707H12.2476H12.9976ZM12.1677 142.537V143.287H12.1677L12.1677 142.537ZM12.1677 129.777V130.527V129.777ZM12.9976 130.607H13.7476H12.9976ZM7.63527 130.607L6.88527 130.607L7.63527 130.607ZM8.46518 129.777V129.027V129.777ZM7.63527 141.707H8.38527H7.63527ZM8.46518 142.537V141.787V142.537ZM8.38527 141.707L8.38527 130.607L6.88527 130.607L6.88527 141.707H8.38527ZM8.46518 130.527L12.1677 130.527V129.027L8.46518 129.027L8.46518 130.527ZM12.2476 130.607L12.2476 141.707H13.7476L13.7476 130.607L12.2476 130.607ZM12.1677 141.787H8.46518V143.287H12.1677V141.787ZM12.2476 141.707C12.2476 141.751 12.2118 141.787 12.1677 141.787L12.1677 143.287C13.0402 143.287 13.7476 142.579 13.7476 141.707H12.2476ZM12.1677 130.527C12.2118 130.527 12.2476 130.562 12.2476 130.607L13.7476 130.607C13.7476 129.734 13.0402 129.027 12.1677 129.027V130.527ZM8.38527 130.607C8.38527 130.562 8.42105 130.527 8.46518 130.527L8.46518 129.027C7.59262 129.027 6.88527 129.734 6.88527 130.607L8.38527 130.607ZM6.88527 141.707C6.88527 142.579 7.59262 143.287 8.46518 143.287L8.46518 141.787C8.42105 141.787 8.38527 141.751 8.38527 141.707H6.88527Z" fill="#333333"/>
<rect x="73.4557" y="79.9999" width="4.14954" height="4.14954" rx="2.07477" fill="white" stroke="#333333" stroke-width="1.5"/>
<circle cx="112.382" cy="114.758" r="0.426345" fill="#333333"/>
<path d="M101.301 113.109C101.497 112.913 101.497 112.597 101.301 112.402C101.106 112.206 100.79 112.206 100.594 112.402L101.301 113.109ZM99.9616 113.034C99.7663 113.229 99.7663 113.546 99.9616 113.741C100.157 113.937 100.473 113.937 100.669 113.741L99.9616 113.034ZM100.594 112.402L99.9616 113.034L100.669 113.741L101.301 113.109L100.594 112.402Z" fill="#333333"/>
<path d="M128.997 102.198L124.739 103.555L128.925 116.689C132.639 128.338 142.792 136.698 154.838 138.177L155.17 133.714C144.944 132.375 136.343 125.243 133.184 115.332L128.997 102.198Z" fill="white" stroke="white" stroke-width="3"/>
<path fill-rule="evenodd" clip-rule="evenodd" d="M122.854 102.581L127.496 117.145C131.548 129.855 142.915 138.829 156.219 139.82L156.774 132.372C146.509 131.607 137.739 124.683 134.613 114.876L129.971 100.313L122.854 102.581Z" stroke="#333333" stroke-width="1.5"/>
<path d="M166.619 140.839C167.077 140.839 167.449 140.359 167.449 139.767L167.449 138.581C167.449 137.989 167.077 137.509 166.619 137.509L158.735 137.509C158.276 137.509 157.905 137.989 157.905 138.581V139.767C157.905 140.359 158.276 140.839 158.735 140.839L166.619 140.839Z" fill="white"/>
<path d="M157.905 139.767H158.655H157.905ZM158.735 140.839V140.089V140.839ZM158.735 137.509V136.759V137.509ZM157.905 138.581H157.155H157.905ZM167.449 138.581L166.699 138.581L167.449 138.581ZM166.619 137.509L166.619 138.259L166.619 137.509ZM167.449 139.767H168.199H167.449ZM166.619 140.839L166.619 141.589L166.619 140.839ZM166.699 139.767L166.699 138.581L168.199 138.581L168.199 139.767H166.699ZM166.619 138.259L158.735 138.259V136.759L166.619 136.759L166.619 138.259ZM158.655 138.581V139.767H157.155V138.581H158.655ZM158.735 140.089L166.619 140.089L166.619 141.589L158.735 141.589V140.089ZM158.655 139.767C158.655 139.911 158.701 140.014 158.741 140.066C158.781 140.117 158.785 140.089 158.735 140.089V141.589C157.695 141.589 157.155 140.584 157.155 139.767H158.655ZM158.735 138.259C158.785 138.259 158.781 138.231 158.741 138.282C158.701 138.334 158.655 138.437 158.655 138.581H157.155C157.155 137.765 157.695 136.759 158.735 136.759V138.259ZM166.699 138.581C166.699 138.437 166.653 138.334 166.613 138.282C166.573 138.231 166.569 138.259 166.619 138.259L166.619 136.759C167.659 136.759 168.199 137.765 168.199 138.581L166.699 138.581ZM168.199 139.767C168.199 140.584 167.659 141.589 166.619 141.589L166.619 140.089C166.569 140.089 166.573 140.117 166.613 140.066C166.653 140.014 166.699 139.911 166.699 139.767H168.199Z" fill="#333333"/>
<path d="M166.619 134.87C167.077 134.87 167.449 134.39 167.449 133.798L167.449 132.612C167.449 132.02 167.077 131.54 166.619 131.54L158.735 131.54C158.276 131.54 157.905 132.02 157.905 132.612V133.798C157.905 134.39 158.276 134.87 158.735 134.87L166.619 134.87Z" fill="white"/>
<path d="M157.905 133.798H158.655H157.905ZM158.735 134.87V134.12V134.87ZM158.735 131.54V130.79V131.54ZM157.905 132.612H157.155H157.905ZM167.449 132.612L166.699 132.612L167.449 132.612ZM166.619 131.54L166.619 132.29L166.619 131.54ZM167.449 133.798H168.199H167.449ZM166.619 134.87L166.619 135.62L166.619 134.87ZM166.699 133.798L166.699 132.612L168.199 132.612L168.199 133.798H166.699ZM166.619 132.29L158.735 132.29V130.79L166.619 130.79L166.619 132.29ZM158.655 132.612V133.798H157.155V132.612H158.655ZM158.735 134.12L166.619 134.12L166.619 135.62L158.735 135.62V134.12ZM158.655 133.798C158.655 133.942 158.701 134.045 158.741 134.097C158.781 134.148 158.785 134.12 158.735 134.12V135.62C157.695 135.62 157.155 134.614 157.155 133.798H158.655ZM158.735 132.29C158.785 132.29 158.781 132.262 158.741 132.313C158.701 132.365 158.655 132.468 158.655 132.612H157.155C157.155 131.795 157.695 130.79 158.735 130.79V132.29ZM166.699 132.612C166.699 132.468 166.653 132.365 166.613 132.313C166.573 132.262 166.569 132.29 166.619 132.29L166.619 130.79C167.659 130.79 168.199 131.795 168.199 132.612L166.699 132.612ZM168.199 133.798C168.199 134.614 167.659 135.62 166.619 135.62L166.619 134.12C166.569 134.12 166.573 134.148 166.613 134.097C166.653 134.045 166.699 133.942 166.699 133.798H168.199Z" fill="#333333"/>
<path d="M157.034 141.037H159.397L159.397 131.277L157.034 131.277L157.034 141.037Z" fill="white" stroke="white" stroke-width="3"/>
<path d="M155.534 141.707H156.284H155.534ZM156.364 142.537V143.287H156.364L156.364 142.537ZM156.364 129.777V130.527V129.777ZM155.534 130.607H154.784H155.534ZM160.897 130.607L161.647 130.607L160.897 130.607ZM160.067 129.777V129.027V129.777ZM160.897 141.707H160.147H160.897ZM160.067 142.537V141.787V142.537ZM160.147 141.707L160.147 130.607L161.647 130.607L161.647 141.707H160.147ZM160.067 130.527L156.364 130.527V129.027L160.067 129.027L160.067 130.527ZM156.284 130.607L156.284 141.707H154.784L154.784 130.607L156.284 130.607ZM156.364 141.787H160.067V143.287H156.364V141.787ZM156.284 141.707C156.284 141.751 156.32 141.787 156.364 141.787L156.364 143.287C155.492 143.287 154.784 142.579 154.784 141.707H156.284ZM156.364 130.527C156.32 130.527 156.284 130.562 156.284 130.607L154.784 130.607C154.784 129.734 155.492 129.027 156.364 129.027V130.527ZM160.147 130.607C160.147 130.562 160.111 130.527 160.067 130.527L160.067 129.027C160.939 129.027 161.647 129.734 161.647 130.607L160.147 130.607ZM161.647 141.707C161.647 142.579 160.939 143.287 160.067 143.287L160.067 141.787C160.111 141.787 160.147 141.751 160.147 141.707H161.647Z" fill="#333333"/>
<rect width="14.0111" height="6.16216" rx="3.08108" transform="matrix(-1 0 0 1 126.131 123.073)" fill="white" stroke="#333333" stroke-width="1.5"/>
<rect width="14.0111" height="6.16216" rx="3.08108" transform="matrix(-1 0 0 1 56.4962 123.073)" fill="white" stroke="#333333" stroke-width="1.5"/>
<rect width="23.1862" height="34.0909" rx="4" transform="matrix(-1 0 0 1 122.717 109.109)" fill="white"/>
<rect width="23.1862" height="34.0909" rx="4" transform="matrix(-1 0 0 1 122.717 109.109)" stroke="#333333" stroke-width="1.5"/>
<rect width="23.1862" height="11.6155" transform="matrix(-1 0 0 1 122.717 120.346)" stroke="#333333" stroke-width="1.5"/>
<path d="M31.182 143.2H136.008" stroke="#333333" stroke-width="1.5"/>
<path d="M29.09 124.198L34.09 128.198" stroke="#333333" stroke-width="1.5"/>
<path d="M23.3947 128.178L26.9862 134.535" stroke="#333333" stroke-width="1.5"/>
<path d="M17.2374 131.541L19.1371 138.591" stroke="#333333" stroke-width="1.5"/>
<path d="M33.3341 117.527L40.1789 120.067" stroke="#333333" stroke-width="1.5"/>
<path d="M35.9786 109.122L43.0737 110.844" stroke="#333333" stroke-width="1.5"/>
<path d="M139.442 124.198L134.442 128.198" stroke="#333333" stroke-width="1.5"/>
<path d="M145.137 128.178L141.546 134.535" stroke="#333333" stroke-width="1.5"/>
<path d="M151.295 131.541L149.395 138.591" stroke="#333333" stroke-width="1.5"/>
<path d="M135.198 117.527L128.353 120.067" stroke="#333333" stroke-width="1.5"/>
<path d="M132.553 109.122L125.458 110.844" stroke="#333333" stroke-width="1.5"/>
<rect width="23.1862" height="34.0909" rx="4" transform="matrix(-1 0 0 1 69.2032 109.109)" fill="white"/>
<path d="M46.0171 134.857V113.109C46.0171 110.9 47.8079 109.109 50.0171 109.109H65.2032C67.4124 109.109 69.2032 110.9 69.2032 113.109V139.2C69.2032 141.409 67.4124 143.2 65.2032 143.2H50.0171C47.8079 143.2 46.0171 141.409 46.0171 139.2V138.794" stroke="#333333" stroke-width="1.5"/>
<rect width="23.1862" height="11.6155" transform="matrix(-1 0 0 1 69.2032 120.346)" stroke="#333333" stroke-width="1.5"/>
<mask id="path-57-inside-1_10633_9475" fill="white">
<path d="M55.128 40.2695C56.7383 35.1397 62.2022 32.2865 67.3321 33.8968L115.654 49.0651C120.784 50.6754 123.637 56.1393 122.027 61.2692C120.417 66.399 114.953 69.2522 109.823 67.642L61.5008 52.4736C56.3709 50.8633 53.5177 45.3994 55.128 40.2695Z"/>
</mask>
<path d="M55.128 40.2695C56.7383 35.1397 62.2022 32.2865 67.3321 33.8968L115.654 49.0651C120.784 50.6754 123.637 56.1393 122.027 61.2692C120.417 66.399 114.953 69.2522 109.823 67.642L61.5008 52.4736C56.3709 50.8633 53.5177 45.3994 55.128 40.2695Z" fill="white"/>
<path d="M115.654 49.0651L114.756 51.9274L114.756 51.9274L115.654 49.0651ZM67.3321 33.8968L68.2306 31.0345L68.2306 31.0345L67.3321 33.8968ZM66.4336 36.7591L114.756 51.9274L116.552 46.2028L68.2306 31.0345L66.4336 36.7591ZM110.721 64.7797L62.3993 49.6113L60.6023 55.3359L108.924 70.5043L110.721 64.7797ZM62.3993 49.6113C58.8502 48.4973 56.8763 44.7171 57.9903 41.168L52.2657 39.3711C50.1592 46.0817 53.8917 53.2294 60.6023 55.3359L62.3993 49.6113ZM119.164 60.3707C118.05 63.9198 114.27 65.8937 110.721 64.7797L108.924 70.5043C115.635 72.6107 122.783 68.8783 124.889 62.1677L119.164 60.3707ZM114.756 51.9274C118.305 53.0415 120.279 56.8217 119.164 60.3707L124.889 62.1677C126.996 55.457 123.263 48.3093 116.552 46.2028L114.756 51.9274ZM68.2306 31.0345C61.5199 28.928 54.3722 32.6604 52.2657 39.3711L57.9903 41.168C59.1044 37.619 62.8845 35.645 66.4336 36.7591L68.2306 31.0345Z" fill="white" mask="url(#path-57-inside-1_10633_9475)"/>
<path d="M61.5006 52.4732L61.7252 51.7577L61.5006 52.4732ZM109.822 67.6416L109.598 68.3572L109.822 67.6416ZM115.654 49.0648L115.429 49.7803L115.654 49.0648ZM67.3319 33.8964L67.5565 33.1808L67.5565 33.1808L67.3319 33.8964ZM67.1072 34.612L115.429 49.7803L115.878 48.3492L67.5565 33.1808L67.1072 34.612ZM110.047 66.926L61.7252 51.7577L61.2759 53.1888L109.598 68.3572L110.047 66.926ZM61.7252 51.7577C56.9905 50.2715 54.3571 45.2284 55.8434 40.4938L54.4122 40.0446C52.6779 45.5696 55.7509 51.4545 61.2759 53.1888L61.7252 51.7577ZM67.5565 33.1808C62.0314 31.4465 56.1465 34.5195 54.4122 40.0446L55.8434 40.4938C57.3296 35.7591 62.3726 33.1258 67.1072 34.612L67.5565 33.1808ZM115.429 49.7803C117.345 50.3817 118.915 51.5638 120.009 53.0726L121.223 52.1921C119.947 50.4312 118.112 49.0503 115.878 48.3492L115.429 49.7803ZM121.496 56.3392C121.717 57.2959 121.783 58.2963 121.675 59.3041L123.166 59.4645C123.293 58.2871 123.216 57.1183 122.958 56.0016L121.496 56.3392ZM120.563 62.7736C118.524 66.3921 114.168 68.2196 110.047 66.926L109.598 68.3572C114.409 69.8672 119.49 67.733 121.87 63.51L120.563 62.7736Z" fill="#333333"/>
<path d="M110.518 42.3355L113.841 42.1948L114.044 38.8751L117.367 38.7344L117.571 35.4147" stroke="#333333" stroke-width="1.5"/>
<circle cx="118.286" cy="32.9583" r="2.85723" transform="rotate(45.5445 118.286 32.9583)" fill="white" stroke="#333333" stroke-width="1.5"/>
<path d="M74.9792 31.411L77.9387 21.9828" stroke="#333333" stroke-width="1.5"/>
<circle cx="78.6068" cy="19.8541" r="2.85723" transform="rotate(45.5445 78.6068 19.8541)" fill="white" stroke="#333333" stroke-width="1.5"/>
<path d="M65.4 38.0374C66.7173 33.8407 71.1873 31.5066 75.3839 32.8239L109.66 43.5831C113.856 44.9004 116.19 49.3704 114.873 53.5671L108.121 75.0758C106.804 79.2725 102.334 81.6066 98.1375 80.2893L63.8618 69.5301C59.6652 68.2127 57.331 63.7428 58.6484 59.5461L65.4 38.0374Z" fill="#EEEEEE" stroke="white" stroke-width="3"/>
<mask id="path-65-inside-2_10633_9475" fill="white">
<path d="M66.5421 43.8525C68.0527 39.0402 73.1784 36.3636 77.9907 37.8742L104.634 46.2375C109.446 47.7481 112.123 52.8738 110.612 57.6861C109.101 62.4984 103.976 65.175 99.1634 63.6644L72.5204 55.3011C67.7081 53.7905 65.0315 48.6648 66.5421 43.8525Z"/>
</mask>
<path d="M66.5421 43.8525C68.0527 39.0402 73.1784 36.3636 77.9907 37.8742L104.634 46.2375C109.446 47.7481 112.123 52.8738 110.612 57.6861C109.101 62.4984 103.976 65.175 99.1634 63.6644L72.5204 55.3011C67.7081 53.7905 65.0315 48.6648 66.5421 43.8525Z" fill="white"/>
<path d="M77.0923 40.7365L103.735 49.0998L105.532 43.3752L78.8892 35.0119L77.0923 40.7365ZM100.062 60.8021L73.4189 52.4388L71.6219 58.1634L98.2649 66.5267L100.062 60.8021ZM73.4189 52.4388C70.1874 51.4244 68.39 47.9825 69.4044 44.751L63.6798 42.954C61.673 49.3471 65.2288 56.1566 71.6219 58.1634L73.4189 52.4388ZM107.75 56.7876C106.735 60.0191 103.293 61.8165 100.062 60.8021L98.2649 66.5267C104.658 68.5335 111.468 64.9777 113.474 58.5846L107.75 56.7876ZM103.735 49.0998C106.967 50.1141 108.764 53.5561 107.75 56.7876L113.474 58.5846C115.481 52.1915 111.925 45.382 105.532 43.3752L103.735 49.0998ZM78.8892 35.0119C72.4961 33.0051 65.6866 36.5609 63.6798 42.954L69.4044 44.751C70.4188 41.5194 73.8608 39.7221 77.0923 40.7365L78.8892 35.0119Z" fill="white" mask="url(#path-65-inside-2_10633_9475)"/>
<path d="M74.5325 49.2486L81.3818 45.672" stroke="#333333" stroke-width="1.5" stroke-linecap="round"/>
<path d="M79.7245 50.8784L76.148 44.0291" stroke="#333333" stroke-width="1.5" stroke-linecap="round"/>
<path d="M95.8701 56.0942L102.721 52.5168" stroke="#333333" stroke-width="1.5" stroke-linecap="round"/>
<path d="M100.796 57.6405L97.2188 50.7896" stroke="#333333" stroke-width="1.5" stroke-linecap="round"/>
<path d="M77.7661 38.5898L104.409 46.953L104.858 45.5219L78.2154 37.1586L77.7661 38.5898ZM99.388 62.9488L72.745 54.5855L72.2958 56.0167L98.9388 64.38L99.388 62.9488ZM72.745 54.5855C68.3279 53.199 65.8711 48.4942 67.2577 44.0771L65.8265 43.6279C64.1919 48.8354 67.0883 54.382 72.2958 56.0167L72.745 54.5855ZM109.896 57.4615C108.51 61.8786 103.805 64.3354 99.388 62.9488L98.9388 64.38C104.146 66.0146 109.693 63.1182 111.328 57.9107L109.896 57.4615ZM104.409 46.953C108.826 48.3396 111.283 53.0444 109.896 57.4615L111.328 57.9107C112.962 52.7032 110.066 47.1565 104.858 45.5219L104.409 46.953ZM78.2154 37.1586C73.0078 35.524 67.4612 38.4203 65.8265 43.6279L67.2577 44.0771C68.6442 39.66 73.349 37.2032 77.7661 38.5898L78.2154 37.1586Z" fill="#333333"/>
<path d="M57.737 61.4125C58.2099 59.5248 58.778 57.6623 59.4392 55.832C60.4613 52.7861 61.3419 50.3228 61.4196 50.3513C60.9449 52.2371 60.3759 54.098 59.7148 55.9268C58.6978 58.9826 57.8121 61.436 57.737 61.4125Z" fill="white"/>
<path d="M63.4124 70.9609L63.1877 71.6764L63.4124 70.9609ZM57.217 59.0965L56.5014 58.8719L57.217 59.0965ZM109.552 75.5247L108.837 75.3001L109.552 75.5247ZM97.688 81.7201L97.9127 81.0045L97.688 81.7201ZM110.109 42.1516L110.333 41.436L110.109 42.1516ZM116.304 54.0159L117.02 54.2405L116.304 54.0159ZM75.833 31.3924L75.6083 32.108L75.833 31.3924ZM63.9686 37.5877L64.6842 37.8124L63.9686 37.5877ZM75.6083 32.108L109.884 42.8672L110.333 41.436L76.0576 30.6768L75.6083 32.108ZM115.588 53.7913L108.837 75.3001L110.268 75.7493L117.02 54.2405L115.588 53.7913ZM97.9127 81.0045L63.637 70.2453L63.1877 71.6764L97.4634 82.4356L97.9127 81.0045ZM57.9326 59.3211L64.6842 37.8124L63.2531 37.3631L56.5014 58.8719L57.9326 59.3211ZM63.637 70.2453C59.0451 68.8039 56.4912 63.913 57.9326 59.3211L56.5014 58.8719C54.8119 64.2542 57.8055 69.9869 63.1877 71.6764L63.637 70.2453ZM108.837 75.3001C107.395 79.8919 102.505 82.4459 97.9127 81.0045L97.4634 82.4356C102.846 84.1251 108.578 81.1316 110.268 75.7493L108.837 75.3001ZM109.884 42.8672C114.476 44.3085 117.03 49.1995 115.588 53.7913L117.02 54.2405C118.709 48.8583 115.716 43.1255 110.333 41.436L109.884 42.8672ZM76.0576 30.6768C70.6753 28.9873 64.9426 31.9809 63.2531 37.3631L64.6842 37.8124C66.1256 33.2205 71.0165 30.6666 75.6083 32.108L76.0576 30.6768Z" fill="#333333"/>
<path d="M70.9215 62.5502C71.1927 61.6863 72.1129 61.2058 72.9768 61.477L95.2602 68.4717C96.1241 68.7429 96.6046 69.6631 96.3334 70.527C96.0622 71.391 95.142 71.8715 94.2781 71.6003L71.9948 64.6055C71.1309 64.3343 70.6504 63.4141 70.9215 62.5502Z" fill="white" stroke="#333333" stroke-width="1.5"/>
<rect x="79.1635" y="63.419" width="10.3871" height="3.27907" transform="rotate(17.4272 79.1635 63.419)" stroke="#333333" stroke-width="1.5"/>
<path d="M69.8693 54.1462L64.4854 71.2978L96.6147 81.3832L101.999 64.2316" stroke="#333333" stroke-width="1.5"/>
</svg>
