<svg width="12" height="16" viewBox="0 0 12 16" fill="none" xmlns="http://www.w3.org/2000/svg">
<path d="M7.19999 5.60022C7.19999 6.26296 6.66274 6.80022 5.99999 6.80022C5.33725 6.80022 4.79999 6.26296 4.79999 5.60022C4.79999 4.93748 5.33725 4.40022 5.99999 4.40022C6.66274 4.40022 7.19999 4.93748 7.19999 5.60022Z" fill="black" fill-opacity="0.8"/>
<path fill-rule="evenodd" clip-rule="evenodd" d="M6.45565 15.2269C9.7432 11.3695 11.404 8.17828 11.404 5.60495C11.404 2.61985 8.98409 0.199951 5.99899 0.199951C3.0139 0.199951 0.593994 2.61985 0.593994 5.60495C0.593994 8.17828 2.25479 11.3695 5.54234 15.2269L5.99899 15.7627L6.45565 15.2269ZM1.79399 5.60495C1.79399 3.28259 3.67664 1.39995 5.99899 1.39995C8.32135 1.39995 10.204 3.28259 10.204 5.60495C10.204 7.71363 8.81206 10.4938 5.99899 13.904C3.18593 10.4938 1.79399 7.71363 1.79399 5.60495Z" fill="black" fill-opacity="0.8"/>
</svg>
