<svg width="200" height="200" viewBox="0 0 200 200" fill="none" xmlns="http://www.w3.org/2000/svg">
<path d="M140.775 70.209C140.695 55.539 122.475 43.739 100.155 43.739H99.6248C92.3996 43.737 85.2385 45.0939 78.5148 47.739C67.2248 52.249 59.5148 60.249 58.9748 69.429C58.9748 69.679 58.9748 69.929 58.9748 70.189C58.9748 70.299 58.9748 70.409 58.9748 70.519V70.639C58.9748 70.719 58.9748 70.789 58.9748 70.859C58.9748 70.929 58.9748 71.269 58.9748 71.529V72.429C58.9748 72.629 58.9748 72.839 58.9748 73.049C58.9748 73.259 58.9748 73.419 58.9748 73.609C59.4148 80.909 63.3748 87.549 70.2348 92.399C77.6748 97.659 87.7748 100.399 99.4648 100.399H100.085C112.085 100.299 122.385 97.339 129.855 91.859C136.965 86.639 140.855 79.489 140.775 71.709V70.209Z" fill="#2D3277"/>
<path d="M95.8448 81.619C96.2127 81.4744 96.6004 81.3868 96.9948 81.359C97.3956 81.3325 97.7976 81.3881 98.1762 81.5224C98.5548 81.6568 98.9019 81.867 99.1964 82.1403C99.4908 82.4135 99.7263 82.7441 99.8885 83.1116C100.051 83.4791 100.136 83.8758 100.14 84.2775C100.143 84.6792 100.064 85.0774 99.9083 85.4476C99.7524 85.8178 99.5225 86.1523 99.2328 86.4305C98.943 86.7087 98.5995 86.9248 98.2232 87.0656C97.847 87.2063 97.446 87.2687 97.0448 87.249C96.2905 87.255 95.5632 86.969 95.0152 86.4508C94.4672 85.9326 94.1409 85.2224 94.1048 84.469C94.1048 83.799 93.7248 83.689 93.5048 83.689C93.2903 83.7114 93.0914 83.8109 92.9448 83.969C92.7673 84.1635 92.5531 84.3211 92.3146 84.4326C92.076 84.5442 91.8178 84.6075 91.5548 84.619C91.2308 84.6199 90.9103 84.5517 90.6148 84.419C90.1085 84.2891 89.6672 83.9783 89.3743 83.5454C89.0814 83.1125 88.9571 82.5873 89.0248 82.069C89.0516 81.9674 89.0538 81.8609 89.0312 81.7583C89.0086 81.6557 88.9618 81.5599 88.8948 81.479C88.7992 81.3979 88.6863 81.3397 88.5648 81.309C88.4678 81.2976 88.3696 81.3068 88.2765 81.3361C88.1834 81.3654 88.0976 81.4141 88.0248 81.479C87.612 81.8292 87.1099 82.0577 86.5748 82.139C86.3083 82.1413 86.0438 82.0938 85.7948 81.999C85.0807 81.7747 84.4731 81.2972 84.0864 80.6563C83.6997 80.0154 83.5604 79.2554 83.6948 78.519C83.7234 78.4183 83.7216 78.3114 83.6896 78.2118C83.6575 78.1121 83.5967 78.0242 83.5148 77.959C83.2448 77.789 82.9948 78.039 82.8348 78.199C82.6543 78.3743 82.4361 78.5059 82.1969 78.5839C81.9577 78.6619 81.7039 78.6842 81.4548 78.649C80.8522 78.606 80.286 78.3446 79.8625 77.9137C79.439 77.4829 79.1873 76.9123 79.1548 76.309C79.1532 75.7111 79.3867 75.1365 79.8048 74.709C80.0101 74.5011 80.2545 74.3357 80.524 74.2225C80.7934 74.1092 81.0825 74.0503 81.3748 74.049C81.9057 73.971 82.4461 74.1043 82.8799 74.4202C83.3137 74.7362 83.6062 75.2097 83.6948 75.739C83.7003 75.7822 83.7003 75.8259 83.6948 75.869C83.6948 76.059 83.7548 76.319 83.9948 76.399C84.2348 76.479 84.4148 76.229 84.5148 76.069C84.5391 76.0275 84.5658 75.9874 84.5948 75.949L84.6748 75.859C84.9523 75.4599 85.334 75.1444 85.7783 74.947C86.2226 74.7495 86.7125 74.6776 87.1948 74.739C87.5337 74.7387 87.8708 74.7893 88.1948 74.889C88.6554 75.0591 89.0496 75.3722 89.3195 75.7825C89.5894 76.1928 89.7209 76.6786 89.6948 77.169C89.6971 77.3161 89.7552 77.4567 89.8573 77.5625C89.9594 77.6683 90.0979 77.7314 90.2448 77.739C90.3334 77.7358 90.4204 77.7136 90.4997 77.674C90.5791 77.6343 90.649 77.578 90.7048 77.509C90.9154 77.2452 91.1773 77.0268 91.4746 76.867C91.7719 76.7072 92.0986 76.6092 92.4348 76.579C92.8762 76.5828 93.3121 76.6781 93.7148 76.859C95.8548 77.759 94.8848 80.519 94.8748 80.539C94.7448 80.859 94.5348 81.409 94.9948 81.699H95.0848H95.2548C95.4233 81.6845 95.5886 81.6441 95.7448 81.579L95.8448 81.619Z" fill="white"/>
<path d="M138.545 67.039C132.801 68.3777 127.196 70.256 121.805 72.649C117.935 69.329 108.995 61.649 106.565 59.889C105.596 59.0894 104.497 58.4635 103.315 58.039C102.791 57.8728 102.244 57.7951 101.695 57.809C101.013 57.8229 100.338 57.9444 99.6947 58.169C97.9705 58.8917 96.3839 59.9066 95.0047 61.169L94.9147 61.249C93.7839 62.3036 92.4732 63.1469 91.0447 63.739C90.5817 63.8421 90.1091 63.8957 89.6347 63.899C88.7435 63.967 87.8582 63.7074 87.1447 63.169L87.2547 62.999L90.6247 59.309C93.2347 56.649 95.6947 54.149 101.395 53.969H101.675C104.263 54.0647 106.807 54.666 109.165 55.739C112.448 57.3217 116.05 58.1356 119.695 58.119C123.598 58.0246 127.435 57.0901 130.945 55.379C134.905 58.739 137.605 62.739 138.545 67.039Z" fill="white"/>
<path d="M99.6947 45.5691H100.215C105.583 45.5505 110.928 46.2809 116.095 47.7391L116.445 47.8391L117.145 48.0491C121.412 49.3668 125.442 51.355 129.085 53.9391C126.128 55.2667 122.935 55.9909 119.695 56.0691H119.545C116.257 56.0402 113.018 55.2747 110.065 53.8291C107.426 52.6521 104.583 52.0033 101.695 51.9191H101.295C97.8133 51.8973 94.4381 53.1169 91.7747 55.3591C90.1735 55.4693 88.5918 55.7749 87.0647 56.2691C86.0233 56.6341 84.9363 56.8528 83.8347 56.9191H82.7147H82.5747C78.6382 56.2497 74.7719 55.2187 71.0247 53.8391C78.3747 48.6691 88.7647 45.6591 99.6947 45.5691Z" fill="#FFD100"/>
<path d="M69.1348 55.259C74.3148 57.329 80.3048 58.799 82.1348 58.899H82.5448C82.9548 58.899 83.3848 58.949 83.8148 58.959C85.1344 58.9001 86.4398 58.6612 87.6948 58.249C88.1948 58.099 88.6948 57.959 89.1948 57.839C89.174 57.8648 89.1506 57.8883 89.1248 57.909L85.6948 61.669C85.4 61.9409 85.1938 62.2951 85.1029 62.6856C85.0119 63.0761 85.0405 63.4849 85.1848 63.859C85.4064 64.3188 85.753 64.7069 86.1848 64.979C87.3516 65.6271 88.6704 65.9517 90.0048 65.919C90.5133 65.9169 91.02 65.8565 91.5148 65.739C93.0048 65.399 94.5148 64.169 96.1748 62.839C97.4741 61.6988 98.9589 60.789 100.565 60.149C100.953 60.0447 101.353 59.9876 101.755 59.979H102.045C103.268 60.1766 104.412 60.7137 105.345 61.529C108.055 63.529 119.635 73.529 120.975 74.629C121.206 74.8365 121.39 75.0912 121.514 75.3758C121.638 75.6605 121.7 75.9685 121.695 76.279C121.682 76.5814 121.59 76.8751 121.429 77.1311C121.267 77.3872 121.042 77.5967 120.775 77.739C120.328 78.0426 119.804 78.2126 119.265 78.229C118.817 78.23 118.378 78.109 117.995 77.879L117.695 77.539C116.635 76.539 113.385 73.669 112.035 72.539C111.799 72.2864 111.479 72.1297 111.135 72.099C111.033 72.0978 110.933 72.1197 110.841 72.163C110.749 72.2063 110.668 72.2699 110.605 72.349C110.315 72.719 110.465 73.249 110.995 73.689L116.075 78.689C116.41 79.0204 116.628 79.4524 116.695 79.919C116.714 80.2993 116.625 80.6773 116.437 81.0085C116.25 81.3398 115.971 81.6106 115.635 81.789C115.157 82.1362 114.585 82.3314 113.995 82.349C113.537 82.3561 113.087 82.2348 112.695 81.999L111.925 81.239C110.605 79.969 109.255 78.659 108.255 77.839C108.01 77.5935 107.689 77.4384 107.345 77.399C107.251 77.4003 107.158 77.4205 107.072 77.4582C106.987 77.496 106.909 77.5507 106.845 77.619C106.705 77.789 106.525 78.139 106.935 78.619C107.017 78.7258 107.107 78.8261 107.205 78.919L110.905 82.999C111.084 83.1919 111.19 83.4406 111.207 83.703C111.223 83.9654 111.148 84.2255 110.995 84.439L110.875 84.599C110.775 84.709 110.665 84.809 110.565 84.899C110.094 85.25 109.522 85.4363 108.935 85.429C108.782 85.4402 108.628 85.4402 108.475 85.429C108.065 85.359 107.935 85.259 107.895 85.209L107.775 85.089C106.728 83.9935 105.623 82.9554 104.465 81.979C104.231 81.7444 103.924 81.5963 103.595 81.559C103.497 81.5576 103.399 81.5774 103.31 81.6171C103.22 81.6568 103.14 81.7154 103.075 81.789C102.765 82.139 102.905 82.649 103.435 83.129L106.225 86.239C106.155 86.339 105.845 86.679 104.785 86.819C104.645 86.8288 104.505 86.8288 104.365 86.819C103.418 86.7651 102.494 86.5093 101.655 86.069C101.89 85.4738 102.009 84.839 102.005 84.199C101.994 82.9105 101.48 81.6772 100.572 80.7632C99.6633 79.8493 98.4332 79.3273 97.1448 79.309C97.2296 78.4069 97.0267 77.5011 96.565 76.7214C96.1033 75.9418 95.4066 75.3283 94.5748 74.969C93.9422 74.6977 93.263 74.5516 92.5748 74.539C92.1305 74.5478 91.6896 74.6185 91.2648 74.749C90.7378 73.8706 89.9098 73.2132 88.9348 72.899C88.3713 72.6935 87.7744 72.5951 87.1748 72.609C86.2651 72.6136 85.3761 72.881 84.6148 73.379C84.222 72.9474 83.7433 72.6025 83.2095 72.3666C82.6756 72.1307 82.0984 72.0089 81.5148 72.009C80.4791 72.0248 79.4843 72.4156 78.7148 73.109C77.5348 72.279 73.5448 69.949 63.5648 67.769C63.1048 67.669 62.1248 67.399 61.3048 67.169C62.1148 62.879 64.8648 58.739 69.1348 55.259Z" fill="white"/>
<path d="M138.885 71.819C138.885 72.149 138.805 72.479 138.765 72.819C137.885 78.489 134.035 83.819 127.675 87.919C120.325 92.739 110.515 95.419 100.065 95.509H99.5449C78.2249 95.509 60.8649 84.509 60.7549 70.859C60.7549 70.429 60.7549 69.959 60.8149 69.429L62.9849 69.919C72.8249 72.019 76.5149 74.239 77.4249 74.919C77.2643 75.3821 77.1832 75.8689 77.1849 76.359C77.1954 77.4696 77.6433 78.5312 78.4314 79.3137C79.2195 80.0962 80.2843 80.5364 81.3949 80.539C81.5847 80.5489 81.775 80.5489 81.9649 80.539C82.1676 81.314 82.5584 82.0271 83.1027 82.6149C83.6469 83.2027 84.3277 83.6472 85.0849 83.909C85.5529 84.094 86.0516 84.189 86.5549 84.189C86.8167 84.1862 87.0778 84.1594 87.3349 84.109C87.8609 85.1471 88.7672 85.9423 89.8649 86.329C90.3908 86.535 90.95 86.6435 91.5149 86.649C91.8777 86.652 92.2387 86.598 92.5849 86.489C92.9842 87.328 93.6133 88.0365 94.3993 88.5322C95.1852 89.0278 96.0957 89.2903 97.0249 89.289C98.2878 89.2748 99.4973 88.7774 100.405 87.899C101.611 88.5568 102.952 88.9297 104.325 88.989C104.535 88.989 104.745 88.989 104.955 88.989C105.503 88.9635 106.04 88.822 106.529 88.5738C107.019 88.3256 107.45 87.9763 107.795 87.549C107.818 87.5068 107.845 87.4666 107.875 87.429C108.248 87.5201 108.631 87.5671 109.015 87.569C109.999 87.5367 110.947 87.1858 111.715 86.569C112.461 86.0493 113.008 85.291 113.265 84.419C113.475 84.419 113.705 84.419 113.915 84.419C114.9 84.3966 115.857 84.0835 116.665 83.519C117.249 83.1823 117.739 82.7031 118.089 82.1261C118.439 81.5492 118.637 80.8931 118.665 80.219C118.871 80.2389 119.079 80.2389 119.285 80.219C120.209 80.2014 121.109 79.9166 121.875 79.399C122.391 79.0786 122.824 78.6389 123.135 78.1169C123.446 77.5949 123.628 77.0058 123.665 76.399C123.718 75.6544 123.563 74.9097 123.215 74.249C128.287 72.168 133.517 70.496 138.855 69.249C138.855 69.679 138.925 70.119 138.925 70.559C138.925 70.999 138.915 71.399 138.885 71.819Z" fill="#FFD100"/>
<path d="M162.115 113.739C160.648 111.899 158.415 110.979 155.415 110.979C152.415 110.979 150.175 111.899 148.695 113.739C147.261 115.622 146.484 117.923 146.484 120.289C146.484 122.655 147.261 124.956 148.695 126.839C150.162 128.659 152.395 129.569 155.395 129.569C158.395 129.569 160.628 128.659 162.095 126.839C163.529 124.956 164.305 122.655 164.305 120.289C164.305 117.923 163.529 115.622 162.095 113.739H162.115ZM158.475 124.319C158.095 124.764 157.622 125.122 157.091 125.367C156.559 125.612 155.98 125.739 155.395 125.739C154.809 125.739 154.231 125.612 153.699 125.367C153.167 125.122 152.695 124.764 152.315 124.319C151.534 123.137 151.159 121.733 151.245 120.319C151.157 118.905 151.532 117.5 152.315 116.319C152.695 115.874 153.167 115.516 153.699 115.271C154.231 115.026 154.809 114.899 155.395 114.899C155.98 114.899 156.559 115.026 157.091 115.271C157.622 115.516 158.095 115.874 158.475 116.319C159.253 117.502 159.628 118.905 159.545 120.319C159.624 121.729 159.249 123.127 158.475 124.309V124.319Z" fill="#2D3277"/>
<path d="M124.495 112.189C122.903 111.406 121.148 111.015 119.375 111.049C116.375 111.049 114.375 111.819 113.115 113.359C112.315 114.461 111.865 115.778 111.825 117.139H116.245C116.313 116.554 116.538 115.998 116.895 115.529C117.201 115.236 117.566 115.013 117.967 114.874C118.368 114.736 118.793 114.687 119.215 114.729C119.98 114.683 120.746 114.824 121.445 115.139C121.698 115.288 121.903 115.507 122.036 115.769C122.169 116.032 122.224 116.326 122.195 116.619C122.191 116.915 122.091 117.201 121.911 117.435C121.731 117.669 121.479 117.839 121.195 117.919C120.605 118.134 119.99 118.268 119.365 118.319L117.795 118.519C116.403 118.639 115.047 119.019 113.795 119.639C112.981 120.104 112.314 120.788 111.87 121.614C111.426 122.44 111.223 123.374 111.285 124.309C111.241 125.025 111.359 125.742 111.629 126.406C111.899 127.071 112.314 127.666 112.845 128.149C113.976 129.06 115.393 129.542 116.845 129.509C126.845 129.959 126.715 124.249 126.845 123.059V116.489C126.695 114.389 125.995 112.949 124.495 112.189ZM122.185 122.189C122.238 122.783 122.146 123.382 121.916 123.932C121.686 124.483 121.325 124.969 120.865 125.349C120.057 125.918 119.093 126.222 118.105 126.219C117.528 126.232 116.964 126.049 116.505 125.699C116.268 125.488 116.085 125.224 115.97 124.929C115.855 124.633 115.812 124.314 115.845 123.999C115.826 123.607 115.917 123.217 116.107 122.875C116.298 122.532 116.581 122.249 116.925 122.059C117.589 121.745 118.297 121.536 119.025 121.439L120.025 121.239C120.443 121.172 120.855 121.068 121.255 120.929C121.565 120.811 121.863 120.663 122.145 120.489L122.185 122.189Z" fill="#2D3277"/>
<path d="M101.695 114.969C102.164 114.926 102.636 114.994 103.074 115.168C103.512 115.342 103.903 115.616 104.215 115.969C104.601 116.49 104.852 117.098 104.945 117.739H109.875C109.605 115.259 108.735 113.519 107.265 112.539C105.564 111.494 103.589 110.982 101.595 111.069C100.414 111.004 99.2337 111.194 98.133 111.625C97.0322 112.057 96.037 112.72 95.2148 113.569C93.5706 115.517 92.743 118.025 92.9048 120.569C92.7971 122.907 93.5395 125.206 94.9948 127.039C96.3948 128.709 98.5648 129.539 101.525 129.539C102.803 129.62 104.081 129.39 105.25 128.867C106.419 128.344 107.443 127.545 108.235 126.539C109.134 125.408 109.683 124.038 109.815 122.599H104.915C104.851 123.415 104.549 124.194 104.045 124.839C103.745 125.155 103.378 125.399 102.972 125.555C102.565 125.711 102.129 125.774 101.695 125.739C100.991 125.787 100.291 125.599 99.7046 125.207C99.1184 124.814 98.6788 124.238 98.4548 123.569C98.0998 122.582 97.9369 121.537 97.9748 120.489C97.9365 119.392 98.0992 118.297 98.4548 117.259C98.6735 116.578 99.1078 115.986 99.6922 115.573C100.277 115.16 100.979 114.948 101.695 114.969Z" fill="#2D3277"/>
<path d="M91.5848 111.109C81.4648 111.109 82.0648 120.109 82.0648 120.109V129.209H86.6948V120.629C86.6309 119.57 86.8087 118.51 87.2148 117.529C87.8448 116.329 89.0748 115.729 90.9148 115.729H91.4648L92.2348 115.789V111.139H91.8348L91.5848 111.109Z" fill="#2D3277"/>
<path d="M74.6947 124.409C74.5193 124.671 74.3071 124.907 74.0647 125.109C73.3119 125.626 72.405 125.869 71.4947 125.799C70.642 125.85 69.7933 125.648 69.0547 125.219C68.4554 124.823 67.969 124.279 67.643 123.639C67.317 123 67.1625 122.286 67.1947 121.569H79.9247C79.9544 120.413 79.9009 119.257 79.7647 118.109C79.585 116.815 79.1094 115.579 78.3747 114.499C77.6361 113.375 76.5966 112.481 75.3747 111.919C74.0804 111.363 72.6832 111.087 71.2747 111.109C70.1242 111.063 68.9765 111.253 67.903 111.67C66.8295 112.086 65.8531 112.719 65.0347 113.529C63.4347 115.142 62.6347 117.456 62.6347 120.469C62.6347 123.696 63.5214 126.029 65.2947 127.469C67.0255 128.883 69.1999 129.641 71.4347 129.609C72.6479 129.681 73.8624 129.492 74.9959 129.053C76.1295 128.615 77.1556 127.938 78.0047 127.069C78.7513 126.335 79.2985 125.423 79.5947 124.419L74.6947 124.409ZM68.5247 115.859C68.8848 115.514 69.3122 115.247 69.7803 115.075C70.2484 114.903 70.7469 114.829 71.2447 114.859C72.2332 114.827 73.1987 115.161 73.9547 115.799C74.3332 116.151 74.6358 116.576 74.8439 117.049C75.052 117.522 75.1611 118.032 75.1647 118.549H67.3247C67.4365 117.546 67.8637 116.604 68.5447 115.859H68.5247Z" fill="#2D3277"/>
<path d="M60.7748 129.169H56.5848V118.599C56.6303 118.176 56.5833 117.747 56.447 117.344C56.3108 116.941 56.0885 116.572 55.7956 116.262C55.5027 115.953 55.1461 115.712 54.7506 115.554C54.3551 115.396 53.93 115.326 53.5048 115.349C53.0777 115.336 52.6525 115.412 52.2561 115.571C51.8598 115.731 51.5008 115.971 51.202 116.277C50.9031 116.582 50.6709 116.946 50.5199 117.346C50.3689 117.746 50.3025 118.172 50.3248 118.599V129.169H46.1248V118.599C46.1725 118.182 46.1297 117.759 45.9993 117.36C45.8689 116.961 45.654 116.595 45.3693 116.287C45.0846 115.978 44.7367 115.735 44.3494 115.573C43.962 115.411 43.5443 115.335 43.1248 115.349C42.6928 115.326 42.2607 115.394 41.8569 115.549C41.4531 115.705 41.0867 115.944 40.7817 116.25C40.4768 116.557 40.2401 116.925 40.0872 117.33C39.9344 117.735 39.8688 118.167 39.8948 118.599V129.169H35.6948V118.739C35.6948 114.379 38.5848 111.079 43.0748 111.079C44.072 111.054 45.0615 111.26 45.9655 111.681C46.8695 112.103 47.6634 112.729 48.2848 113.509C48.9186 112.74 49.7163 112.123 50.6195 111.703C51.5227 111.282 52.5086 111.069 53.5048 111.079C58.0748 111.079 60.7748 114.239 60.7748 118.739V129.169Z" fill="#2D3277"/>
<path d="M145.135 105.589C145.135 105.589 140.515 105.099 140.515 108.819V113.739C140.024 112.938 139.336 112.276 138.515 111.819C137.653 111.34 136.68 111.099 135.695 111.119C134.641 111.082 133.594 111.295 132.638 111.74C131.682 112.185 130.845 112.849 130.195 113.679C128.743 115.766 128.039 118.282 128.195 120.819C128.096 123.119 128.839 125.377 130.285 127.169C131.675 128.819 134.405 129.539 136.825 129.539C145.285 129.539 145.185 122.289 145.185 122.289L145.135 105.589ZM139.635 124.349C139.301 124.827 138.85 125.211 138.324 125.464C137.799 125.716 137.217 125.828 136.635 125.789C136.076 125.815 135.521 125.695 135.023 125.44C134.525 125.186 134.102 124.807 133.795 124.339C133.107 123.122 132.777 121.735 132.845 120.339C132.796 119.025 133.122 117.725 133.785 116.589C134.089 116.099 134.52 115.701 135.033 115.437C135.545 115.173 136.119 115.053 136.695 115.089C137.542 115.077 138.364 115.376 139.005 115.929C140.085 116.839 140.615 118.489 140.615 120.619C140.681 121.934 140.339 123.237 139.635 124.349Z" fill="#2D3277"/>
<path d="M98.0749 138.139H101.525L95.2849 155.809H90.5648L84.3848 138.139H89.3049L92.8249 150.559L95.9449 139.739C96.0583 139.266 96.3331 138.848 96.7219 138.556C97.1107 138.264 97.5891 138.116 98.0749 138.139ZM111.365 137.659H111.765V142.369L110.985 142.309H110.435C108.585 142.309 107.345 142.919 106.705 144.119C106.295 145.113 106.114 146.186 106.175 147.259V155.739H101.535V146.739C101.535 146.739 100.935 137.739 111.155 137.739L111.365 137.659ZM129.445 144.659C129.258 143.367 128.783 142.133 128.055 141.049C127.316 139.923 126.277 139.026 125.055 138.459C123.757 137.903 122.357 137.627 120.945 137.649C119.79 137.605 118.639 137.799 117.564 138.221C116.488 138.642 115.511 139.282 114.695 140.099C113.095 141.709 112.285 144.029 112.285 147.099C112.285 150.326 113.175 152.659 114.955 154.099C116.689 155.516 118.866 156.277 121.105 156.249C122.326 156.314 123.548 156.114 124.685 155.664C125.822 155.213 126.849 154.523 127.695 153.639C128.443 152.906 128.991 151.994 129.285 150.989H124.385C124.206 151.249 123.994 151.484 123.755 151.689C122.993 152.223 122.073 152.48 121.145 152.419C120.291 152.468 119.442 152.263 118.705 151.829C118.108 151.426 117.626 150.875 117.305 150.23C116.984 149.585 116.836 148.868 116.875 148.149H129.595C129.625 147.01 129.575 145.871 129.445 144.739V144.659ZM116.985 145.549C117.095 144.542 117.522 143.597 118.205 142.849C118.566 142.505 118.993 142.239 119.461 142.067C119.929 141.895 120.427 141.821 120.925 141.849C121.921 141.833 122.888 142.19 123.635 142.849C124.017 143.199 124.322 143.623 124.532 144.097C124.742 144.57 124.852 145.081 124.855 145.599L116.985 145.549ZM74.6049 131.979V155.739H70.2549V135.299C70.2549 131.799 74.6049 131.979 74.6049 131.979ZM78.1749 138.139H82.8449V155.739H78.1749V138.139ZM78.1749 132.389H82.8349V137.009H78.1749V132.389Z" fill="#2D3277"/>
</svg>
